<?xml version="1.0" encoding="UTF-8"?>
<svg id="Layer_1" data-name="Layer 1" xmlns="http://www.w3.org/2000/svg" viewBox="0 0 960 960">
  <defs>
    <style>
      .cls-1, .cls-2, .cls-3, .cls-4, .cls-5 {
        fill-rule: evenodd;
        stroke-width: 0px;
      }

      .cls-2 {
        fill: #931c21;
      }

      .cls-3 {
        fill: #fbc900;
      }

      .cls-4 {
        fill: #fff;
      }

      .cls-5 {
        fill: #0074bc;
      }
    </style>
  </defs>
  <path class="cls-1" d="M783.62,197.62c-95.33-39.95-200.22-60.45-303.18-60.45s-207.84,20.51-303.17,60.46l-34.41-108.83C248.42,42.5,365.74,21.67,480.44,21.67s232.02,20.81,337.58,67.12l-34.41,108.83h0ZM536,643v31.8h-5.9v-31.8h-24.12v31.8h-9.4v-31.8h-32.55v31.8h-9.4v-31.8h-23.84v31.8h-5.9v-31.8h-9.29v31.8h-5.9v-31.8h-9.29v31.8h-5.9v-31.8h-9.29v31.8h-5.9v-31.8h-9.29v31.8h-5.9v-121.77h66.69l-25.25,50.49h149.78l-25.25-50.49h66.69v121.77h-5.9v-31.8h-9.29v31.8h-5.9v-31.8h-9.29v31.8h-5.9v-31.8h-9.29v31.8h-5.9v-31.8h-9.29ZM440.89,471.52v65.15l-32.57,65.15h144.26l-32.57-65.15v-65.15h-79.11ZM381.09,609.26v25.16h19.58v-25.16h-19.58ZM520.02,609.26v25.16h19.58v-25.16h-19.58ZM560.22,609.26v25.16h19.58v-25.16h-19.58ZM421.28,609.26v25.16h19.58v-25.16h-19.58ZM381.77,736.38l-6.43-6.76h25.72l12.69,13.34h133.38l12.69-13.34h25.72l-6.43,6.76h-13.71l-26.81,28.19h-116.3l-26.82-28.19h-13.71ZM520.11,723.77h-79.34l11.7,12.3h55.95l11.7-12.3h0ZM186.55,169.91l8.01-2.81-4.21-17.94,4.19-12.21,17.49,24.02,10.4-3.65-24.28-30.7,9.57-28.38-10.83,3.8-10.08,32.06-6.18-26.36-8.01,2.81,13.92,59.36h0ZM259.48,145.27l-28.29-55.01-8.59,2.62-3.42,64.68,8.62-2.63.53-14.62,16.04-4.89,6.29,12.54,8.82-2.69h0ZM239.72,126.12l-10.05-20.55-.91,23.89,10.96-3.34h0ZM260.3,145.21l28.5-7.41-1.77-10.18-20.34,5.29-8.64-49.73-8.15,2.12,10.41,59.91h0ZM290.92,137.74l8.21-1.77-8.77-60.81-8.21,1.77,8.77,60.81h0ZM303.6,133.57l7.71-1.32-5.53-48.13,13.61,46.75,7.99-1.37,2.62-49.54,5.53,48.13,7.67-1.32-7.03-61.15-12.41,2.13-2.58,42.98-12.23-40.44-12.38,2.13,7.03,61.15h0ZM384.76,121.2l-21.75-59.29-8.8,1.13-10.75,63.47,8.84-1.14,2.19-14.39,16.44-2.11,4.8,13.49,9.04-1.16h0ZM367.36,98.87l-7.62-22.06-3.62,23.51,11.24-1.44h0ZM385.92,120.96l7.76-.66-2.3-40.17,18.93,38.75,8.38-.72-3.52-61.6-7.76.66,2.35,41.13-19.25-39.69-8.12.69,3.52,61.6h0ZM433.33,117.3l8.33-.36-1.46-51.26,12.25-.52-.3-10.45-32.87,1.4.3,10.45,12.29-.53,1.46,51.27h0ZM488.88,115.29l-16.56-61.75h-8.85l-16.12,61.75h8.89l3.41-14.03h16.53l3.62,14.03h9.09ZM473.49,90.87l-5.69-22.92-5.61,22.92h11.3ZM489.83,116.15h7.78v-40.27l16.67,40.27h8.41v-61.75h-7.78v41.23l-16.94-41.23h-8.14v61.75h0ZM543.03,98.02c.33,14.18,5.57,21.71,15.69,22.57,5.72.49,10.04-.97,12.94-4.38,2.89-3.41,4.5-7.79,4.81-13.14.21-3.7-.1-6.88-.94-9.56-.84-2.67-2.15-4.91-3.92-6.71-1.77-1.79-4.71-3.62-8.82-5.47-3.87-1.72-6.34-3.18-7.37-4.43-1.04-1.24-1.51-2.69-1.41-4.37.1-1.72.79-3.09,2.08-4.13,1.27-1.04,3.04-1.47,5.28-1.28,2.24.19,3.94,1,5.07,2.41,1.14,1.42,1.8,3.8,1.98,7.14l8.37.17c.19-6.01-.99-10.75-3.54-14.2-2.54-3.46-6.23-5.39-11.09-5.8-3.24-.28-5.98.18-8.27,1.35-2.27,1.19-4.11,3.08-5.52,5.65-1.4,2.59-2.19,5.56-2.38,8.92-.16,2.88.16,5.62.99,8.21.83,2.59,2.03,4.73,3.59,6.4,1.55,1.69,4.08,3.33,7.55,4.95,3.88,1.83,6.31,3.09,7.3,3.81,1,.72,1.72,1.59,2.17,2.62.45,1.02.63,2.23.55,3.64-.14,2.38-.97,4.31-2.51,5.8-1.54,1.5-3.56,2.13-6.07,1.92-5.09-.44-7.87-4.64-8.33-12.59l-8.21.49h0ZM579,121.01l31.31,4.02.89-10.35-23.02-2.96,1.44-16.72,20.69,2.66.89-10.34-20.69-2.66,1.17-13.61,22.27,2.86.89-10.39-30.56-3.93-5.28,61.41h0ZM613.49,126.4l28.85,4.96,1.18-10.31-20.59-3.54,5.79-50.34-8.25-1.42-6.97,60.65h0ZM681.77,139.64l-7.55-64.33-8.72-1.88-24.64,57.39,8.75,1.89,5.35-13.09,16.28,3.51,1.57,14.59,8.95,1.93h0ZM670.08,112.32l-2.35-23.78-8.78,21.38,11.13,2.4h0ZM687.34,142.02l8.15,2.12,8.72-50.18,11.99,3.12,1.78-10.22-32.18-8.36-1.78,10.22,12.03,3.13-8.72,50.18h0ZM741.24,157.77l-3.86-64.82-8.59-2.62-27.85,55.15,8.62,2.63,6.08-12.61,16.04,4.89.74,14.69,8.82,2.69h0ZM731.14,129.52l-.99-23.92-9.97,20.58,10.96,3.34h0ZM741.85,159.01l7.48,2.62,9.08-38.71,6.95,44.33,8.08,2.83,13.92-59.36-7.48-2.62-9.29,39.64-6.99-45.35-7.82-2.74-13.92,59.36h0ZM773.35,631.58c-3.26-23.88-11-48.7-23.86-73.92-55.12-108.08-34.67-156.78,20.8-212.6-14.13-8.18-26.28-16.55-36.56-25.38-.1-.09-.2-.18-.31-.27l-87.17,87.17c42.51,42.51,68.87,101.18,68.87,165.81,0,129.26-105.42,234.69-234.68,234.69-64.63,0-123.3-26.36-165.81-68.87l-61.8,61.8s.05.04.07.06c33.45,28.94,76.51,46.9,121.77,53.54,39.01,5.72,81.53,25.43,105.78,67.77,24.24-42.34,66.76-62.04,105.77-67.77,67.01-9.83,130.7-45.23,163.71-105,18.98-34.45,30.07-77.37,23.42-117.05Z"/>
  <path class="cls-3" d="M733.43,319.42c-30.58-26.35-44.63-56.72-45.49-97.81-70.39,51.08-145.15,50.68-207.5-1.2-62.35,51.88-137.11,52.29-207.5,1.2-1.14,55.01-25.92,90.79-82.35,123.46,55.47,55.82,75.92,104.52,20.8,212.6-12.86,25.22-20.6,50.02-23.86,73.91-6.66,39.68,4.4,82.53,23.42,117.06,10.96,19.84,25.22,36.98,41.87,51.4l61.8-61.8c-42.51-42.51-68.87-101.18-68.87-165.82,0-129.26,105.42-234.68,234.68-234.68,64.63,0,123.3,26.36,165.81,68.87l87.17-87.17h0ZM186.55,169.91l-13.92-59.36,8.01-2.81,6.18,26.36,10.08-32.06,10.83-3.8-9.57,28.38,24.28,30.7-10.4,3.65-17.49-24.02-4.19,12.21,4.21,17.94-8.01,2.81h0ZM259.48,145.27l-28.29-55.01-8.59,2.62-3.42,64.68,8.62-2.63.53-14.62,16.04-4.89,6.29,12.54,8.82-2.69h0ZM239.72,126.12l-10.96,3.34.91-23.89,10.05,20.55h0ZM260.3,145.21l-10.41-59.91,8.15-2.12,8.64,49.73,20.34-5.29,1.77,10.18-28.5,7.41h0ZM290.92,137.74l8.21-1.77-8.77-60.81-8.21,1.77,8.77,60.81h0ZM303.6,133.57l-7.03-61.15,12.38-2.13,12.23,40.44,2.58-42.98,12.41-2.13,7.03,61.15-7.67,1.32-5.53-48.13-2.62,49.54-7.99,1.37-13.61-46.75,5.53,48.13-7.71,1.32h0ZM384.76,121.2l-9.04,1.16-4.8-13.49-16.44,2.11-2.19,14.39-8.84,1.14,10.75-63.47,8.8-1.13,21.75,59.29h0ZM367.36,98.87l-7.62-22.06-3.62,23.51,11.24-1.44h0ZM385.92,120.96l7.76-.66-2.3-40.17,18.93,38.75,8.38-.72-3.52-61.6-7.76.66,2.35,41.13-19.25-39.69-8.12.69,3.52,61.6h0ZM433.33,117.3l-1.46-51.27-12.29.53-.3-10.45,32.87-1.4.3,10.45-12.25.52,1.46,51.26-8.33.36h0ZM488.88,115.29l-16.56-61.75h-8.85l-16.12,61.75h8.89l3.41-14.03h16.53l3.62,14.03h9.09ZM473.49,90.87h-11.3l5.61-22.92,5.69,22.92h0ZM489.83,116.15v-61.75h8.14l16.94,41.23v-41.23h7.78v61.75h-8.41l-16.67-40.27v40.27h-7.78ZM543.03,98.02l8.21-.49c.46,7.95,3.24,12.15,8.33,12.59,2.51.21,4.54-.42,6.07-1.92,1.55-1.48,2.38-3.41,2.51-5.8.08-1.41-.1-2.62-.55-3.64-.45-1.03-1.18-1.9-2.17-2.62-1-.72-3.42-1.98-7.3-3.81-3.48-1.62-6-3.27-7.55-4.95-1.57-1.68-2.76-3.81-3.59-6.4-.83-2.59-1.16-5.33-.99-8.21.19-3.36.99-6.33,2.38-8.92,1.41-2.58,3.25-4.46,5.52-5.65,2.28-1.17,5.03-1.63,8.27-1.35,4.86.42,8.55,2.35,11.09,5.8,2.55,3.45,3.73,8.19,3.54,14.2l-8.37-.17c-.19-3.35-.84-5.72-1.98-7.14-1.13-1.41-2.83-2.22-5.07-2.41-2.24-.19-4.01.23-5.28,1.28-1.29,1.04-1.98,2.41-2.08,4.13-.1,1.68.37,3.13,1.41,4.37,1.04,1.26,3.5,2.72,7.37,4.43,4.11,1.85,7.05,3.67,8.82,5.47,1.77,1.79,3.08,4.04,3.92,6.71.84,2.68,1.15,5.86.94,9.56-.31,5.35-1.91,9.72-4.81,13.14-2.91,3.41-7.22,4.87-12.94,4.38-10.12-.87-15.36-8.39-15.69-22.57h0ZM579,121.01l5.28-61.41,30.56,3.93-.89,10.39-22.27-2.86-1.17,13.61,20.69,2.66-.89,10.34-20.69-2.66-1.44,16.72,23.02,2.96-.89,10.35-31.31-4.02h0ZM613.49,126.4l28.85,4.96,1.18-10.31-20.59-3.54,5.79-50.34-8.25-1.42-6.97,60.65h0ZM681.77,139.64l-8.95-1.93-1.57-14.59-16.28-3.51-5.35,13.09-8.75-1.89,24.64-57.39,8.72,1.88,7.55,64.33h0ZM670.08,112.32l-2.35-23.78-8.78,21.38,11.13,2.4h0ZM687.34,142.02l8.72-50.18-12.03-3.13,1.78-10.22,32.18,8.36-1.78,10.22-11.99-3.12-8.72,50.18-8.15-2.12h0ZM741.24,157.77l-3.86-64.82-8.59-2.62-27.85,55.15,8.62,2.63,6.08-12.61,16.04,4.89.74,14.69,8.82,2.69h0ZM731.14,129.52l-10.96-3.34,9.97-20.58.99,23.92h0ZM741.85,159.01l13.92-59.36,7.82,2.74,6.99,45.35,9.29-39.64,7.48,2.62-13.92,59.36-8.08-2.83-6.95-44.33-9.08,38.71-7.48-2.62Z"/>
  <path class="cls-2" d="M480.84,949.82c24.25-45.45,48.81-73.98,107.37-82.57,71.3-10.46,139.45-49.1,175.6-113.17,20.77-36.8,29.73-80.03,22.92-126.42-9.74-66.45-65.53-125.38-54.74-193.8,6.05-38.33,34.63-65.6,60.63-91.77-65.5-37.93-89.89-72.66-91.44-147.11-71.82,52.12-138.76,75.66-220.74,7.45-81.91,68.21-148.93,44.66-220.62-7.45-1.66,74.46-25.94,109.18-91.57,147.11,25.91,26.17,54.61,53.44,60.67,91.77,10.75,68.42-44.93,127.35-54.88,193.8-6.63,46.39,2.2,89.62,22.9,126.42,36.13,64.06,104.49,102.7,175.67,113.17,58.74,8.59,83.02,37.12,107.54,82.57v-4.82s.68,4.82.68,4.82h0ZM432.76,644.93h20.01v15.76l-20.01-6.36v-9.41h0ZM494.43,671.45h-27.98v-10.38h27.98v10.38h0ZM528.12,644.93v9.41l-20.01,6.36v-15.76h20.01ZM787.17,210.52c-96.28-40.94-202.5-61.95-306.73-61.95s-210.45,21.02-306.73,61.96l-40.7-128.75C241.09,32.4,362.16,10.26,480.44,10.26s239.35,22.12,347.43,71.52l-40.7,128.75h0ZM783.62,197.62c-95.33-39.95-200.22-60.45-303.18-60.45s-207.84,20.51-303.17,60.46l-34.41-108.83C248.42,42.5,365.74,21.67,480.44,21.67s232.02,20.81,337.58,67.12l-34.41,108.83h0ZM480.44,337.72c129.26,0,234.68,105.42,234.68,234.68s-105.42,234.69-234.68,234.69-234.68-105.42-234.68-234.69,105.42-234.68,234.68-234.68h0ZM480.44,352.3c121.23,0,220.1,98.87,220.1,220.1s-98.87,220.11-220.1,220.11-220.1-98.88-220.1-220.11,98.87-220.1,220.1-220.1h0ZM773.35,631.58c6.65,39.68-4.44,82.6-23.42,117.05-33.02,59.77-96.71,95.17-163.71,105-39.01,5.72-81.53,25.43-105.77,67.77-24.25-42.34-66.77-62.04-105.78-67.77-67.82-9.95-130.74-45.3-163.71-105-19.02-34.53-30.08-77.38-23.42-117.06,3.26-23.88,11-48.69,23.86-73.91,55.12-108.08,34.66-156.78-20.8-212.6,56.43-32.66,81.22-68.45,82.35-123.46,70.39,51.08,145.16,50.68,207.5-1.2,62.34,51.88,137.11,52.29,207.5,1.2,1.14,55.01,25.93,90.79,82.35,123.46-55.47,55.82-75.92,104.52-20.8,212.6,12.86,25.22,20.59,50.03,23.86,73.92Z"/>
  <path class="cls-5" d="M480.44,352.3c121.23,0,220.1,98.87,220.1,220.1s-98.87,220.11-220.1,220.11-220.1-98.88-220.1-220.11,98.87-220.1,220.1-220.1h0ZM463.92,439.76l16.52,21.15,16.52-21.15-5.51-7.05h-22.02l-5.51,7.05h0ZM540.02,410.35l-27.64,23.02,33.76-12.43,8.89-12.19-15,1.6h0ZM414.75,420.94l33.77,12.43-27.65-23.02-15-1.6,8.88,12.19h0ZM438.98,392.22l23.03,27.65-12.43-33.76-12.19-8.88,1.6,15h0ZM474.32,379.48l6.12,35.45,6.11-35.45-6.11-13.79-6.12,13.79h0ZM511.3,386.11l-12.43,33.77,23.02-27.65,1.6-15-12.19,8.88h0ZM371.83,728.12l9.29,9.77h13.71l26.82,28.18h117.58l26.82-28.18h13.71l9.29-9.77h-29.87l-12.69,13.34h-132.1l-12.69-13.34h-29.87ZM509.05,737.58l14.57-15.31h-86.36l14.57,15.31h57.23ZM494.41,658.29v-13.15h-27.94v13.15h27.94ZM439.18,473.65v62.62l-7.31,14.63h-69.9v126.04h10.17v-31.8h5.02v31.8h10.17v-31.8h5.02v31.8h10.17v-31.8h5.02v31.8h10.17v-31.8h5.02v31.8h10.17v-20.24l19.54,6.21v14.03h14.01v-2.71h27.94v2.71h14.01v-14.03l19.54-6.21v20.24h10.17v-31.8h5.02v31.8h10.17v-31.8h5.02v31.8h10.17v-31.8h5.02v31.8h10.17v-31.8h5.02v31.8h10.17v-126.04h-69.89l-7.31-14.63v-62.62l4.89-4.22h-92.32l4.9,4.23Z"/>
  <path class="cls-4" d="M494.41,658.29h-27.94v-13.15h27.94v13.15h0ZM526.59,469.43h-92.32l4.9,4.23v62.62l-7.31,14.63h-69.9v126.04h10.17v-31.8h5.02v31.8h10.17v-31.8h5.02v31.8h10.17v-31.8h5.02v31.8h10.17v-31.8h5.02v31.8h10.17v-20.24l19.54,6.21v14.03h14.01v-2.71h27.94v2.71h14.01v-14.03l19.54-6.21v20.24h10.17v-31.8h5.02v31.8h10.17v-31.8h5.02v31.8h10.17v-31.8h5.02v31.8h10.17v-31.8h5.02v31.8h10.17v-126.04h-69.89l-7.31-14.63v-62.62l4.89-4.22h0ZM509.05,737.58l14.57-15.31h-86.36l14.57,15.31h57.23ZM381.77,736.38l-6.43-6.76h25.72l12.69,13.34h133.38l12.69-13.34h25.72l-6.43,6.76h-13.71l-26.81,28.19h-116.3l-26.82-28.19h-13.71ZM520.11,723.77l-11.7,12.3h-55.95l-11.7-12.3h79.34ZM371.83,728.12h29.87l12.69,13.34h132.1l12.69-13.34h29.87l-9.29,9.77h-13.71l-26.82,28.18h-117.58l-26.82-28.18h-13.71l-9.29-9.77h0ZM463.92,439.76l5.51-7.05h22.02l5.51,7.05-16.52,21.15-16.52-21.15h0ZM540.02,410.35l15-1.6-8.89,12.19-33.76,12.43,27.64-23.02h0ZM414.75,420.94l-8.88-12.19,15,1.6,27.65,23.02-33.77-12.43h0ZM438.98,392.22l23.03,27.65-12.43-33.76-12.19-8.88,1.6,15h0ZM474.32,379.48l6.12-13.79,6.11,13.79-6.11,35.45-6.12-35.45h0ZM511.3,386.11l-12.43,33.77,23.02-27.65,1.6-15-12.19,8.88h0ZM536,643h9.29v31.8h5.9v-31.8h9.29v31.8h5.9v-31.8h9.29v31.8h5.9v-31.8h9.29v31.8h5.9v-121.77h-66.69l25.25,50.49h-149.78l25.25-50.49h-66.69v121.77h5.9v-31.8h9.29v31.8h5.9v-31.8h9.29v31.8h5.9v-31.8h9.29v31.8h5.9v-31.8h9.29v31.8h5.9v-31.8h23.84v31.8h9.4v-31.8h32.55v31.8h9.4v-31.8h24.12v31.8h5.9v-31.8h0ZM440.89,471.52h79.11v65.15l32.57,65.15h-144.26l32.57-65.15v-65.15h0ZM381.09,609.26h19.58v25.16h-19.58v-25.16h0ZM520.02,609.26h19.58v25.16h-19.58v-25.16h0ZM560.22,609.26h19.58v25.16h-19.58v-25.16h0ZM421.28,609.26h19.58v25.16h-19.58v-25.16h0ZM432.76,644.93h20.01v15.76l-20.01-6.36v-9.41h0ZM494.43,671.45h-27.98v-10.38h27.98v10.38h0ZM528.12,644.93v9.41l-20.01,6.36v-15.76h20.01Z"/>
</svg>